<svg xmlns="http://www.w3.org/2000/svg" width="960" height="600" viewBox="0 0 960 600">
  <rect width="960" height="600" rx="42" fill="#f7f1e7"/>
  <path d="M0 430 C180 370 310 520 500 438 C690 356 800 404 960 334 L960 600 L0 600Z" fill="#e5decc"/>
  <ellipse cx="600" cy="285" rx="260" ry="154" fill="#d8c9ac"/>
  <ellipse cx="600" cy="252" rx="238" ry="136" fill="#fffaf0"/>
  <ellipse cx="650" cy="240" rx="100" ry="78" fill="#fffdf5"/>
  <g><ellipse cx="552" cy="205" rx="58" ry="38" fill="#e7896d" opacity=".95"/><text x="552" y="211" text-anchor="middle" font-size="20" fill="#fffaf2" font-family="PingFang SC,Arial">三文鱼</text></g><g><ellipse cx="428.6026194228117" cy="251.61330579903918" rx="58" ry="38" fill="#557b4b" opacity=".95"/><text x="428.6026194228117" y="257.61330579903915" text-anchor="middle" font-size="20" fill="#fffaf2" font-family="PingFang SC,Arial">菠菜</text></g><g><ellipse cx="429.79861265006264" cy="157.93490828966623" rx="58" ry="38" fill="#8aa15d" opacity=".95"/><text x="429.79861265006264" y="163.93490828966623" text-anchor="middle" font-size="20" fill="#fffaf2" font-family="PingFang SC,Arial">牛油果</text></g>
  <path d="M720 455 L922 344" stroke="#7d5434" stroke-width="12" stroke-linecap="round" opacity=".75"/>
  <path d="M700 428 L902 318" stroke="#906542" stroke-width="8" stroke-linecap="round" opacity=".65"/>
  <rect x="54" y="58" width="290" height="218" rx="22" fill="#fffaf0" opacity=".9"/>
  <text x="82" y="110" font-size="24" fill="#596550" font-family="Georgia,serif" letter-spacing="2">TODAY'S TABLE</text>
  <line x1="82" y1="138" x2="140" y2="138" stroke="#6f835e" stroke-width="3"/>
  <text x="82" y="190" font-size="42" fill="#20251f" font-family="PingFang SC,serif">三文鱼菠菜沙拉</text>
  <text x="82" y="236" font-size="22" fill="#6f675b" font-family="PingFang SC,Arial">三文鱼 · 菠菜 · 牛油果</text>
</svg>